<svg width="19" height="16" viewBox="0 0 19 16" fill="none" xmlns="http://www.w3.org/2000/svg">
<path d="M8.29499 15.715C8.48479 15.8963 8.73825 15.9957 9.00069 15.9918C9.26313 15.9878 9.5135 15.8809 9.69777 15.694C9.88205 15.5071 9.98546 15.2552 9.98568 14.9928C9.98591 14.7303 9.88294 14.4783 9.69899 14.291L4.32899 8.99904H17.999C18.2642 8.99904 18.5186 8.89368 18.7061 8.70615C18.8936 8.51861 18.999 8.26425 18.999 7.99904C18.999 7.73382 18.8936 7.47947 18.7061 7.29193C18.5186 7.1044 18.2642 6.99904 17.999 6.99904H4.33599L9.69999 1.71404C9.88394 1.52682 9.98691 1.27478 9.98668 1.01232C9.98645 0.749851 9.88305 0.497995 9.69877 0.311095C9.5145 0.124195 9.26413 0.0172358 9.00169 0.0132964C8.73925 0.009357 8.48579 0.108753 8.29599 0.290038L1.36999 7.11204C1.25207 7.22833 1.15844 7.36689 1.09453 7.51968C1.03062 7.67246 0.997711 7.83643 0.997711 8.00204C0.997711 8.16765 1.03062 8.33161 1.09453 8.4844C1.15844 8.63718 1.25207 8.77575 1.36999 8.89204L8.29399 15.715H8.29499Z" fill="red"/>
</svg>
