<svg width="20" height="20" viewBox="0 0 20 20" fill="none" xmlns="http://www.w3.org/2000/svg">
<path d="M8.0767 0C3.61606 0 0 3.61606 0 8.0767C0 12.5374 3.61606 16.1534 8.0767 16.1534C10.0305 16.1534 11.8212 15.4604 13.2181 14.3058L18.6864 19.7749C18.8308 19.9191 19.0265 20.0001 19.2305 20C19.4346 19.9999 19.6302 19.9188 19.7745 19.7745C19.9187 19.6301 19.9997 19.4344 19.9996 19.2304C19.9995 19.0263 19.9184 18.8307 19.7741 18.6864L14.3058 13.2173C15.5025 11.7718 16.1561 9.95332 16.1534 8.0767C16.1534 3.61606 12.5374 0 8.0767 0ZM1.53842 8.0767C1.53842 6.34264 2.22727 4.67961 3.45344 3.45344C4.67961 2.22727 6.34264 1.53842 8.0767 1.53842C9.81077 1.53842 11.4738 2.22727 12.7 3.45344C13.9261 4.67961 14.615 6.34264 14.615 8.0767C14.615 9.81077 13.9261 11.4738 12.7 12.7C11.4738 13.9261 9.81077 14.615 8.0767 14.615C6.34264 14.615 4.67961 13.9261 3.45344 12.7C2.22727 11.4738 1.53842 9.81077 1.53842 8.0767V8.0767Z" fill="red"/>
</svg>
